<svg xmlns="http://www.w3.org/2000/svg" xmlns:xlink="http://www.w3.org/1999/xlink" width="500" zoomAndPan="magnify" viewBox="0 0 375 374.999991" height="500" preserveAspectRatio="xMidYMid meet" version="1.0"><defs><g/><clipPath id="2432887693"><path d="M 242 156 L 264 156 L 264 179 L 242 179 Z M 242 156 " clip-rule="nonzero"/></clipPath><clipPath id="40fa956c50"><path d="M 238.105469 160.191406 L 252.972656 146.445312 L 273.335938 168.476562 L 258.464844 182.222656 Z M 238.105469 160.191406 " clip-rule="nonzero"/></clipPath><clipPath id="a86ede319c"><path d="M 238.105469 160.191406 L 252.972656 146.445312 L 273.335938 168.476562 L 258.464844 182.222656 Z M 238.105469 160.191406 " clip-rule="nonzero"/></clipPath><clipPath id="a6aaebb443"><path d="M 253 147 L 274 147 L 274 169 L 253 169 Z M 253 147 " clip-rule="nonzero"/></clipPath><clipPath id="70cded9ae5"><path d="M 248.773438 150.328125 L 263.644531 136.582031 L 284.007812 158.613281 L 269.136719 172.359375 Z M 248.773438 150.328125 " clip-rule="nonzero"/></clipPath><clipPath id="b1f30176fd"><path d="M 248.773438 150.328125 L 263.644531 136.582031 L 284.007812 158.613281 L 269.136719 172.359375 Z M 248.773438 150.328125 " clip-rule="nonzero"/></clipPath><clipPath id="c4cfff2d97"><path d="M 147.472656 115.160156 L 176 115.160156 L 176 148 L 147.472656 148 Z M 147.472656 115.160156 " clip-rule="nonzero"/></clipPath><clipPath id="cbb0535f1e"><path d="M 147.472656 131 L 187.222656 131 L 187.222656 164.660156 L 147.472656 164.660156 Z M 147.472656 131 " clip-rule="nonzero"/></clipPath><clipPath id="57379285da"><path d="M 176 115.160156 L 187.222656 115.160156 L 187.222656 138 L 176 138 Z M 176 115.160156 " clip-rule="nonzero"/></clipPath><clipPath id="fd46c91c13"><path d="M 203 103 L 233 103 L 233 146 L 203 146 Z M 203 103 " clip-rule="nonzero"/></clipPath><clipPath id="bc6d3dda6c"><path d="M 238.097656 136.480469 L 196.640625 149.664062 L 180.503906 98.917969 L 221.957031 85.734375 Z M 238.097656 136.480469 " clip-rule="nonzero"/></clipPath><clipPath id="5470afae9b"><path d="M 238.097656 136.480469 L 196.640625 149.664062 L 180.503906 98.917969 L 221.957031 85.734375 Z M 238.097656 136.480469 " clip-rule="nonzero"/></clipPath><clipPath id="9e5243b079"><path d="M 185 103 L 206 103 L 206 121 L 185 121 Z M 185 103 " clip-rule="nonzero"/></clipPath><clipPath id="0c222bbf87"><path d="M 238.097656 136.480469 L 196.640625 149.664062 L 180.503906 98.917969 L 221.957031 85.734375 Z M 238.097656 136.480469 " clip-rule="nonzero"/></clipPath><clipPath id="3275251eb1"><path d="M 238.097656 136.480469 L 196.640625 149.664062 L 180.503906 98.917969 L 221.957031 85.734375 Z M 238.097656 136.480469 " clip-rule="nonzero"/></clipPath><clipPath id="fca2a0d1ec"><path d="M 185 94 L 227 94 L 227 129 L 185 129 Z M 185 94 " clip-rule="nonzero"/></clipPath><clipPath id="165855453e"><path d="M 238.097656 136.480469 L 196.640625 149.664062 L 180.503906 98.917969 L 221.957031 85.734375 Z M 238.097656 136.480469 " clip-rule="nonzero"/></clipPath><clipPath id="deae50e414"><path d="M 238.097656 136.480469 L 196.640625 149.664062 L 180.503906 98.917969 L 221.957031 85.734375 Z M 238.097656 136.480469 " clip-rule="nonzero"/></clipPath><clipPath id="e424ace8e3"><path d="M 189 126 L 208 126 L 208 147 L 189 147 Z M 189 126 " clip-rule="nonzero"/></clipPath><clipPath id="1c6e449972"><path d="M 238.097656 136.480469 L 196.640625 149.664062 L 180.503906 98.917969 L 221.957031 85.734375 Z M 238.097656 136.480469 " clip-rule="nonzero"/></clipPath><clipPath id="d49d0e7020"><path d="M 238.097656 136.480469 L 196.640625 149.664062 L 180.503906 98.917969 L 221.957031 85.734375 Z M 238.097656 136.480469 " clip-rule="nonzero"/></clipPath></defs><rect x="-37.5" width="450" fill="#ffffff" y="-37.499999" height="449.999989" fill-opacity="1"/><rect x="-37.5" width="450" fill="#373643" y="-37.499999" height="449.999989" fill-opacity="1"/><g clip-path="url(#2432887693)"><g clip-path="url(#40fa956c50)"><g clip-path="url(#a86ede319c)"><path fill="#18cb96" d="M 263.308594 157.730469 L 245.285156 156.929688 C 241.804688 156.777344 241.214844 163.558594 245.339844 163.667969 L 256.558594 163.972656 L 255.699219 175.257812 C 255.441406 178.695312 262.140625 179.058594 262.332031 175.566406 Z M 263.308594 157.730469 " fill-opacity="1" fill-rule="nonzero"/></g></g></g><g clip-path="url(#a6aaebb443)"><g clip-path="url(#70cded9ae5)"><g clip-path="url(#b1f30176fd)"><path fill="#18cb96" d="M 273.980469 147.867188 L 255.957031 147.066406 C 252.476562 146.914062 251.886719 153.695312 256.011719 153.808594 L 267.226562 154.109375 L 266.371094 165.394531 C 266.109375 168.832031 272.8125 169.195312 273.003906 165.703125 Z M 273.980469 147.867188 " fill-opacity="1" fill-rule="nonzero"/></g></g></g><g fill="#ffffff" fill-opacity="1"><g transform="translate(112.723995, 204.845628)"><g><path d="M 32.9375 -8.265625 C 32.9375 -7.898438 32.882812 -7.519531 32.78125 -7.125 C 32.675781 -6.738281 32.460938 -6.367188 32.140625 -6.015625 C 31.066406 -4.753906 29.757812 -3.625 28.21875 -2.625 C 26.6875 -1.625 25.0625 -0.847656 23.34375 -0.296875 C 21.625 0.253906 19.925781 0.53125 18.25 0.53125 C 14.707031 0.53125 11.640625 -0.21875 9.046875 -1.71875 C 6.453125 -3.21875 4.445312 -5.316406 3.03125 -8.015625 C 1.613281 -10.722656 0.941406 -13.847656 1.015625 -17.390625 C 1.015625 -20.859375 1.738281 -23.890625 3.1875 -26.484375 C 4.632812 -29.078125 6.664062 -31.097656 9.28125 -32.546875 C 11.894531 -33.992188 14.9375 -34.71875 18.40625 -34.71875 C 20.769531 -34.71875 23.101562 -34.285156 25.40625 -33.421875 C 27.707031 -32.566406 29.648438 -31.300781 31.234375 -29.625 C 31.984375 -28.832031 32.320312 -28.039062 32.25 -27.25 C 32.175781 -26.46875 31.84375 -25.832031 31.25 -25.34375 C 30.664062 -24.863281 29.953125 -24.640625 29.109375 -24.671875 C 28.265625 -24.710938 27.453125 -25.144531 26.671875 -25.96875 C 25.523438 -27.1875 24.226562 -28.0625 22.78125 -28.59375 C 21.332031 -29.132812 19.875 -29.40625 18.40625 -29.40625 C 16.1875 -29.40625 14.226562 -28.894531 12.53125 -27.875 C 10.832031 -26.851562 9.515625 -25.429688 8.578125 -23.609375 C 7.648438 -21.785156 7.1875 -19.65625 7.1875 -17.21875 C 7.226562 -14.820312 7.710938 -12.691406 8.640625 -10.828125 C 9.566406 -8.972656 10.863281 -7.515625 12.53125 -6.453125 C 14.195312 -5.398438 16.117188 -4.875 18.296875 -4.875 C 19.867188 -4.875 21.429688 -5.222656 22.984375 -5.921875 C 24.546875 -6.617188 25.84375 -7.578125 26.875 -8.796875 L 26.875 -14.265625 L 19.046875 -14.265625 C 18.046875 -14.265625 17.300781 -14.53125 16.8125 -15.0625 C 16.332031 -15.601562 16.09375 -16.195312 16.09375 -16.84375 C 16.09375 -17.5625 16.332031 -18.195312 16.8125 -18.75 C 17.300781 -19.300781 18.046875 -19.578125 19.046875 -19.578125 L 29.71875 -19.578125 C 30.976562 -19.578125 31.828125 -19.304688 32.265625 -18.765625 C 32.710938 -18.234375 32.9375 -17.539062 32.9375 -16.6875 Z M 32.9375 -8.265625 "/></g></g></g><g fill="#ffffff" fill-opacity="1"><g transform="translate(148.508626, 204.845628)"><g><path d="M 17.546875 -34.71875 C 18.117188 -34.71875 18.65625 -34.597656 19.15625 -34.359375 C 19.65625 -34.128906 20.03125 -33.75 20.28125 -33.21875 L 35.46875 -3.4375 C 35.9375 -2.644531 36.0625 -1.953125 35.84375 -1.359375 C 35.625 -0.773438 35.210938 -0.316406 34.609375 0.015625 C 34.003906 0.359375 33.359375 0.53125 32.671875 0.53125 C 32.171875 0.53125 31.660156 0.394531 31.140625 0.125 C 30.628906 -0.132812 30.226562 -0.515625 29.9375 -1.015625 L 26.1875 -8.484375 L 8.90625 -8.484375 L 5.15625 -1.015625 C 4.90625 -0.441406 4.519531 -0.0390625 4 0.1875 C 3.476562 0.414062 2.96875 0.53125 2.46875 0.53125 C 1.863281 0.53125 1.265625 0.359375 0.671875 0.015625 C 0.078125 -0.316406 -0.347656 -0.773438 -0.609375 -1.359375 C -0.878906 -1.953125 -0.851562 -2.585938 -0.53125 -3.265625 L 14.75 -33.21875 C 15.039062 -33.820312 15.410156 -34.222656 15.859375 -34.421875 C 16.304688 -34.617188 16.867188 -34.71875 17.546875 -34.71875 Z M 17.546875 -25.640625 L 11.53125 -13.6875 L 23.5625 -13.6875 Z M 17.546875 -25.640625 "/></g></g></g><g fill="#ffffff" fill-opacity="1"><g transform="translate(183.864046, 204.845628)"><g><path d="M 6.328125 -34.171875 C 7.472656 -34.171875 8.382812 -33.632812 9.0625 -32.5625 L 20.28125 -15.03125 L 31.4375 -32.625 C 31.800781 -33.15625 32.238281 -33.546875 32.75 -33.796875 C 33.269531 -34.046875 33.78125 -34.171875 34.28125 -34.171875 C 35.070312 -34.171875 35.769531 -33.910156 36.375 -33.390625 C 36.988281 -32.878906 37.296875 -32.140625 37.296875 -31.171875 L 37.296875 -2.796875 C 37.296875 -1.859375 36.953125 -1.15625 36.265625 -0.6875 C 35.585938 -0.226562 34.875 0 34.125 0 C 33.332031 0 32.625 -0.226562 32 -0.6875 C 31.375 -1.15625 31.0625 -1.859375 31.0625 -2.796875 L 31.0625 -20.875 L 23.078125 -8.375 C 22.785156 -7.832031 22.378906 -7.4375 21.859375 -7.1875 C 21.347656 -6.9375 20.820312 -6.8125 20.28125 -6.8125 C 19.75 -6.8125 19.203125 -6.960938 18.640625 -7.265625 C 18.085938 -7.566406 17.671875 -7.988281 17.390625 -8.53125 L 9.5 -20.8125 L 9.5 -2.796875 C 9.5 -1.859375 9.164062 -1.15625 8.5 -0.6875 C 7.84375 -0.226562 7.140625 0 6.390625 0 C 5.597656 0 4.878906 -0.226562 4.234375 -0.6875 C 3.585938 -1.15625 3.265625 -1.859375 3.265625 -2.796875 L 3.265625 -31.125 C 3.265625 -32.050781 3.578125 -32.789062 4.203125 -33.34375 C 4.835938 -33.894531 5.546875 -34.171875 6.328125 -34.171875 Z M 6.328125 -34.171875 "/></g></g></g><g fill="#ffffff" fill-opacity="1"><g transform="translate(224.852799, 204.845628)"><g><path d="M 17.546875 -34.71875 C 18.117188 -34.71875 18.65625 -34.597656 19.15625 -34.359375 C 19.65625 -34.128906 20.03125 -33.75 20.28125 -33.21875 L 35.46875 -3.4375 C 35.9375 -2.644531 36.0625 -1.953125 35.84375 -1.359375 C 35.625 -0.773438 35.210938 -0.316406 34.609375 0.015625 C 34.003906 0.359375 33.359375 0.53125 32.671875 0.53125 C 32.171875 0.53125 31.660156 0.394531 31.140625 0.125 C 30.628906 -0.132812 30.226562 -0.515625 29.9375 -1.015625 L 26.1875 -8.484375 L 8.90625 -8.484375 L 5.15625 -1.015625 C 4.90625 -0.441406 4.519531 -0.0390625 4 0.1875 C 3.476562 0.414062 2.96875 0.53125 2.46875 0.53125 C 1.863281 0.53125 1.265625 0.359375 0.671875 0.015625 C 0.078125 -0.316406 -0.347656 -0.773438 -0.609375 -1.359375 C -0.878906 -1.953125 -0.851562 -2.585938 -0.53125 -3.265625 L 14.75 -33.21875 C 15.039062 -33.820312 15.410156 -34.222656 15.859375 -34.421875 C 16.304688 -34.617188 16.867188 -34.71875 17.546875 -34.71875 Z M 17.546875 -25.640625 L 11.53125 -13.6875 L 23.5625 -13.6875 Z M 17.546875 -25.640625 "/></g></g></g><g clip-path="url(#c4cfff2d97)"><path fill="#18cb96" d="M 175.792969 115.160156 L 147.503906 131.492188 L 147.503906 147.3125 L 175.792969 130.980469 Z M 175.792969 115.160156 " fill-opacity="1" fill-rule="nonzero"/></g><path fill="#18cb96" d="M 168.375 149.765625 L 184.546875 159.101562 L 184.546875 143.285156 L 182.074219 141.855469 Z M 168.375 149.765625 " fill-opacity="1" fill-rule="nonzero"/><g clip-path="url(#cbb0535f1e)"><path fill="#18cb96" d="M 147.949219 148.082031 L 176.238281 164.414062 L 184.101562 159.871094 L 167.265625 150.152344 L 167.261719 150.152344 C 167.246094 150.140625 167.234375 150.132812 167.21875 150.125 C 167.214844 150.121094 167.210938 150.117188 167.207031 150.113281 C 167.199219 150.105469 167.1875 150.097656 167.179688 150.089844 C 167.175781 150.085938 167.171875 150.082031 167.167969 150.078125 C 167.15625 150.066406 167.148438 150.054688 167.136719 150.042969 C 167.136719 150.042969 167.132812 150.039062 167.132812 150.035156 C 167.121094 150.023438 167.113281 150.007812 167.101562 149.992188 C 167.101562 149.988281 167.101562 149.988281 167.101562 149.988281 C 167.097656 149.984375 167.097656 149.980469 167.09375 149.976562 C 167.089844 149.96875 167.085938 149.960938 167.082031 149.953125 C 167.078125 149.945312 167.074219 149.941406 167.074219 149.933594 C 167.070312 149.925781 167.066406 149.921875 167.066406 149.914062 C 167.0625 149.90625 167.0625 149.898438 167.058594 149.890625 C 167.058594 149.882812 167.054688 149.878906 167.054688 149.875 C 167.050781 149.863281 167.050781 149.855469 167.046875 149.847656 C 167.046875 149.84375 167.046875 149.835938 167.046875 149.832031 C 167.042969 149.824219 167.042969 149.8125 167.042969 149.804688 C 167.042969 149.800781 167.042969 149.792969 167.039062 149.789062 C 167.039062 149.78125 167.039062 149.773438 167.039062 149.765625 C 167.039062 149.757812 167.039062 149.75 167.039062 149.742188 C 167.039062 149.738281 167.042969 149.730469 167.042969 149.722656 C 167.042969 149.714844 167.042969 149.707031 167.046875 149.699219 C 167.046875 149.691406 167.046875 149.6875 167.046875 149.683594 C 167.050781 149.675781 167.050781 149.664062 167.054688 149.65625 C 167.054688 149.652344 167.058594 149.644531 167.058594 149.640625 C 167.0625 149.632812 167.0625 149.625 167.066406 149.617188 C 167.066406 149.609375 167.070312 149.601562 167.074219 149.597656 C 167.074219 149.589844 167.078125 149.582031 167.082031 149.578125 C 167.085938 149.570312 167.089844 149.5625 167.09375 149.554688 C 167.097656 149.550781 167.097656 149.546875 167.101562 149.542969 C 167.101562 149.539062 167.101562 149.539062 167.101562 149.539062 C 167.109375 149.527344 167.113281 149.523438 167.117188 149.515625 C 167.121094 149.507812 167.125 149.503906 167.125 149.5 C 167.132812 149.492188 167.136719 149.484375 167.144531 149.476562 C 167.148438 149.472656 167.152344 149.46875 167.15625 149.464844 C 167.160156 149.460938 167.167969 149.453125 167.171875 149.445312 C 167.175781 149.441406 167.179688 149.4375 167.183594 149.433594 C 167.191406 149.429688 167.199219 149.421875 167.203125 149.417969 C 167.210938 149.414062 167.214844 149.410156 167.21875 149.40625 C 167.226562 149.402344 167.234375 149.398438 167.238281 149.394531 C 167.246094 149.390625 167.25 149.386719 167.257812 149.382812 C 167.257812 149.378906 167.261719 149.378906 167.261719 149.378906 L 181.851562 140.957031 L 187.019531 137.972656 L 176.238281 131.746094 Z M 147.949219 148.082031 " fill-opacity="1" fill-rule="nonzero"/></g><g clip-path="url(#57379285da)"><path fill="#18cb96" d="M 176.683594 115.160156 L 176.683594 130.980469 L 187.464844 137.203125 L 187.464844 121.386719 Z M 176.683594 115.160156 " fill-opacity="1" fill-rule="nonzero"/></g><g fill="#ffffff" fill-opacity="1"><g transform="translate(134.053961, 224.048485)"><g><path d="M 1.765625 -11.203125 C 1.585938 -11.203125 1.4375 -11.257812 1.3125 -11.375 C 1.1875 -11.5 1.125 -11.660156 1.125 -11.859375 C 1.125 -12.054688 1.1875 -12.210938 1.3125 -12.328125 C 1.4375 -12.453125 1.585938 -12.515625 1.765625 -12.515625 C 1.953125 -12.515625 2.101562 -12.453125 2.21875 -12.328125 C 2.34375 -12.210938 2.40625 -12.054688 2.40625 -11.859375 C 2.40625 -11.660156 2.34375 -11.5 2.21875 -11.375 C 2.101562 -11.257812 1.953125 -11.203125 1.765625 -11.203125 Z M 2.140625 -9.15625 L 2.140625 0 L 1.390625 0 L 1.390625 -9.15625 Z M 2.140625 -9.15625 "/></g></g></g><g fill="#ffffff" fill-opacity="1"><g transform="translate(136.956789, 224.048485)"><g><path d="M 12.21875 -9.34375 C 13.257812 -9.34375 14.113281 -9.007812 14.78125 -8.34375 C 15.445312 -7.675781 15.78125 -6.679688 15.78125 -5.359375 L 15.78125 0 L 15.03125 0 L 15.03125 -5.3125 C 15.03125 -6.40625 14.769531 -7.238281 14.25 -7.8125 C 13.726562 -8.394531 13.007812 -8.6875 12.09375 -8.6875 C 11.15625 -8.6875 10.394531 -8.359375 9.8125 -7.703125 C 9.238281 -7.054688 8.953125 -6.113281 8.953125 -4.875 L 8.953125 0 L 8.21875 0 L 8.21875 -5.3125 C 8.21875 -6.40625 7.957031 -7.238281 7.4375 -7.8125 C 6.914062 -8.394531 6.195312 -8.6875 5.28125 -8.6875 C 4.332031 -8.6875 3.570312 -8.359375 3 -7.703125 C 2.425781 -7.054688 2.140625 -6.113281 2.140625 -4.875 L 2.140625 0 L 1.390625 0 L 1.390625 -9.15625 L 2.140625 -9.15625 L 2.140625 -7.171875 C 2.398438 -7.890625 2.816406 -8.429688 3.390625 -8.796875 C 3.972656 -9.160156 4.644531 -9.34375 5.40625 -9.34375 C 6.238281 -9.34375 6.953125 -9.125 7.546875 -8.6875 C 8.148438 -8.257812 8.566406 -7.625 8.796875 -6.78125 C 9.003906 -7.625 9.414062 -8.257812 10.03125 -8.6875 C 10.65625 -9.125 11.382812 -9.34375 12.21875 -9.34375 Z M 12.21875 -9.34375 "/></g></g></g><g fill="#ffffff" fill-opacity="1"><g transform="translate(153.412597, 224.048485)"><g><path d="M 2.140625 -6.75 C 2.398438 -7.488281 2.867188 -8.09375 3.546875 -8.5625 C 4.234375 -9.039062 5.0625 -9.28125 6.03125 -9.28125 C 6.882812 -9.28125 7.644531 -9.085938 8.3125 -8.703125 C 8.976562 -8.328125 9.5 -7.78125 9.875 -7.0625 C 10.257812 -6.351562 10.453125 -5.53125 10.453125 -4.59375 C 10.453125 -3.644531 10.257812 -2.8125 9.875 -2.09375 C 9.5 -1.382812 8.976562 -0.832031 8.3125 -0.4375 C 7.644531 -0.0507812 6.882812 0.140625 6.03125 0.140625 C 5.070312 0.140625 4.25 -0.0976562 3.5625 -0.578125 C 2.882812 -1.054688 2.410156 -1.660156 2.140625 -2.390625 L 2.140625 4.3125 L 1.390625 4.3125 L 1.390625 -9.15625 L 2.140625 -9.15625 Z M 9.671875 -4.59375 C 9.671875 -5.425781 9.507812 -6.144531 9.1875 -6.75 C 8.875 -7.351562 8.429688 -7.816406 7.859375 -8.140625 C 7.296875 -8.460938 6.644531 -8.625 5.90625 -8.625 C 5.195312 -8.625 4.554688 -8.457031 3.984375 -8.125 C 3.410156 -7.789062 2.957031 -7.316406 2.625 -6.703125 C 2.300781 -6.085938 2.140625 -5.382812 2.140625 -4.59375 C 2.140625 -3.78125 2.300781 -3.066406 2.625 -2.453125 C 2.957031 -1.835938 3.410156 -1.363281 3.984375 -1.03125 C 4.554688 -0.707031 5.195312 -0.546875 5.90625 -0.546875 C 6.644531 -0.546875 7.296875 -0.707031 7.859375 -1.03125 C 8.429688 -1.351562 8.875 -1.816406 9.1875 -2.421875 C 9.507812 -3.035156 9.671875 -3.757812 9.671875 -4.59375 Z M 9.671875 -4.59375 "/></g></g></g><g fill="#ffffff" fill-opacity="1"><g transform="translate(164.129918, 224.048485)"><g><path d="M 2.140625 -7.265625 C 2.367188 -7.941406 2.769531 -8.457031 3.34375 -8.8125 C 3.914062 -9.164062 4.644531 -9.34375 5.53125 -9.34375 L 5.53125 -8.5625 L 5.28125 -8.5625 C 4.382812 -8.5625 3.632812 -8.300781 3.03125 -7.78125 C 2.4375 -7.269531 2.140625 -6.4375 2.140625 -5.28125 L 2.140625 0 L 1.390625 0 L 1.390625 -9.15625 L 2.140625 -9.15625 Z M 2.140625 -7.265625 "/></g></g></g><g fill="#ffffff" fill-opacity="1"><g transform="translate(169.395655, 224.048485)"><g><path d="M 9.640625 -5.203125 C 9.640625 -4.796875 9.628906 -4.488281 9.609375 -4.28125 L 1.6875 -4.28125 C 1.707031 -3.457031 1.882812 -2.765625 2.21875 -2.203125 C 2.5625 -1.640625 3.007812 -1.21875 3.5625 -0.9375 C 4.113281 -0.65625 4.710938 -0.515625 5.359375 -0.515625 C 6.265625 -0.515625 7.019531 -0.738281 7.625 -1.1875 C 8.226562 -1.632812 8.613281 -2.238281 8.78125 -3 L 9.5625 -3 C 9.382812 -2.070312 8.925781 -1.316406 8.1875 -0.734375 C 7.445312 -0.148438 6.503906 0.140625 5.359375 0.140625 C 4.503906 0.140625 3.738281 -0.0507812 3.0625 -0.4375 C 2.394531 -0.820312 1.867188 -1.367188 1.484375 -2.078125 C 1.097656 -2.796875 0.90625 -3.632812 0.90625 -4.59375 C 0.90625 -5.550781 1.09375 -6.382812 1.46875 -7.09375 C 1.851562 -7.800781 2.378906 -8.34375 3.046875 -8.71875 C 3.722656 -9.09375 4.492188 -9.28125 5.359375 -9.28125 C 6.242188 -9.28125 7.007812 -9.09375 7.65625 -8.71875 C 8.300781 -8.34375 8.789062 -7.84375 9.125 -7.21875 C 9.46875 -6.59375 9.640625 -5.921875 9.640625 -5.203125 Z M 8.875 -4.90625 C 8.90625 -5.71875 8.757812 -6.40625 8.4375 -6.96875 C 8.125 -7.53125 7.691406 -7.945312 7.140625 -8.21875 C 6.585938 -8.5 5.988281 -8.640625 5.34375 -8.640625 C 4.707031 -8.640625 4.113281 -8.5 3.5625 -8.21875 C 3.019531 -7.945312 2.578125 -7.53125 2.234375 -6.96875 C 1.890625 -6.40625 1.707031 -5.71875 1.6875 -4.90625 Z M 8.875 -4.90625 "/></g></g></g><g fill="#ffffff" fill-opacity="1"><g transform="translate(179.302829, 224.048485)"><g><path d="M 4.4375 0.140625 C 3.414062 0.140625 2.582031 -0.0820312 1.9375 -0.53125 C 1.289062 -0.988281 0.925781 -1.632812 0.84375 -2.46875 L 1.625 -2.46875 C 1.675781 -1.863281 1.945312 -1.382812 2.4375 -1.03125 C 2.925781 -0.6875 3.59375 -0.515625 4.4375 -0.515625 C 5.132812 -0.515625 5.6875 -0.691406 6.09375 -1.046875 C 6.507812 -1.410156 6.71875 -1.847656 6.71875 -2.359375 C 6.71875 -2.722656 6.609375 -3.019531 6.390625 -3.25 C 6.171875 -3.476562 5.894531 -3.65625 5.5625 -3.78125 C 5.238281 -3.90625 4.796875 -4.039062 4.234375 -4.1875 C 3.554688 -4.363281 3.007812 -4.539062 2.59375 -4.71875 C 2.175781 -4.894531 1.820312 -5.15625 1.53125 -5.5 C 1.238281 -5.851562 1.09375 -6.320312 1.09375 -6.90625 C 1.09375 -7.332031 1.222656 -7.726562 1.484375 -8.09375 C 1.742188 -8.457031 2.101562 -8.742188 2.5625 -8.953125 C 3.019531 -9.171875 3.546875 -9.28125 4.140625 -9.28125 C 5.085938 -9.28125 5.859375 -9.039062 6.453125 -8.5625 C 7.046875 -8.082031 7.363281 -7.421875 7.40625 -6.578125 L 6.65625 -6.578125 C 6.613281 -7.191406 6.375 -7.6875 5.9375 -8.0625 C 5.5 -8.445312 4.894531 -8.640625 4.125 -8.640625 C 3.46875 -8.640625 2.925781 -8.46875 2.5 -8.125 C 2.070312 -7.789062 1.859375 -7.382812 1.859375 -6.90625 C 1.859375 -6.476562 1.976562 -6.128906 2.21875 -5.859375 C 2.457031 -5.597656 2.753906 -5.394531 3.109375 -5.25 C 3.460938 -5.113281 3.929688 -4.96875 4.515625 -4.8125 C 5.160156 -4.644531 5.675781 -4.476562 6.0625 -4.3125 C 6.457031 -4.144531 6.785156 -3.90625 7.046875 -3.59375 C 7.316406 -3.289062 7.453125 -2.878906 7.453125 -2.359375 C 7.453125 -1.890625 7.320312 -1.460938 7.0625 -1.078125 C 6.8125 -0.691406 6.453125 -0.390625 5.984375 -0.171875 C 5.523438 0.0351562 5.007812 0.140625 4.4375 0.140625 Z M 4.4375 0.140625 "/></g></g></g><g fill="#ffffff" fill-opacity="1"><g transform="translate(187.049628, 224.048485)"><g><path d="M 4.4375 0.140625 C 3.414062 0.140625 2.582031 -0.0820312 1.9375 -0.53125 C 1.289062 -0.988281 0.925781 -1.632812 0.84375 -2.46875 L 1.625 -2.46875 C 1.675781 -1.863281 1.945312 -1.382812 2.4375 -1.03125 C 2.925781 -0.6875 3.59375 -0.515625 4.4375 -0.515625 C 5.132812 -0.515625 5.6875 -0.691406 6.09375 -1.046875 C 6.507812 -1.410156 6.71875 -1.847656 6.71875 -2.359375 C 6.71875 -2.722656 6.609375 -3.019531 6.390625 -3.25 C 6.171875 -3.476562 5.894531 -3.65625 5.5625 -3.78125 C 5.238281 -3.90625 4.796875 -4.039062 4.234375 -4.1875 C 3.554688 -4.363281 3.007812 -4.539062 2.59375 -4.71875 C 2.175781 -4.894531 1.820312 -5.15625 1.53125 -5.5 C 1.238281 -5.851562 1.09375 -6.320312 1.09375 -6.90625 C 1.09375 -7.332031 1.222656 -7.726562 1.484375 -8.09375 C 1.742188 -8.457031 2.101562 -8.742188 2.5625 -8.953125 C 3.019531 -9.171875 3.546875 -9.28125 4.140625 -9.28125 C 5.085938 -9.28125 5.859375 -9.039062 6.453125 -8.5625 C 7.046875 -8.082031 7.363281 -7.421875 7.40625 -6.578125 L 6.65625 -6.578125 C 6.613281 -7.191406 6.375 -7.6875 5.9375 -8.0625 C 5.5 -8.445312 4.894531 -8.640625 4.125 -8.640625 C 3.46875 -8.640625 2.925781 -8.46875 2.5 -8.125 C 2.070312 -7.789062 1.859375 -7.382812 1.859375 -6.90625 C 1.859375 -6.476562 1.976562 -6.128906 2.21875 -5.859375 C 2.457031 -5.597656 2.753906 -5.394531 3.109375 -5.25 C 3.460938 -5.113281 3.929688 -4.96875 4.515625 -4.8125 C 5.160156 -4.644531 5.675781 -4.476562 6.0625 -4.3125 C 6.457031 -4.144531 6.785156 -3.90625 7.046875 -3.59375 C 7.316406 -3.289062 7.453125 -2.878906 7.453125 -2.359375 C 7.453125 -1.890625 7.320312 -1.460938 7.0625 -1.078125 C 6.8125 -0.691406 6.453125 -0.390625 5.984375 -0.171875 C 5.523438 0.0351562 5.007812 0.140625 4.4375 0.140625 Z M 4.4375 0.140625 "/></g></g></g><g fill="#ffffff" fill-opacity="1"><g transform="translate(194.796428, 224.048485)"><g><path d="M 0.90625 -4.59375 C 0.90625 -5.53125 1.09375 -6.351562 1.46875 -7.0625 C 1.851562 -7.78125 2.378906 -8.328125 3.046875 -8.703125 C 3.710938 -9.085938 4.472656 -9.28125 5.328125 -9.28125 C 6.296875 -9.28125 7.117188 -9.039062 7.796875 -8.5625 C 8.472656 -8.09375 8.945312 -7.492188 9.21875 -6.765625 L 9.21875 -9.15625 L 9.96875 -9.15625 L 9.96875 0 L 9.21875 0 L 9.21875 -2.40625 C 8.945312 -1.664062 8.46875 -1.054688 7.78125 -0.578125 C 7.101562 -0.0976562 6.285156 0.140625 5.328125 0.140625 C 4.472656 0.140625 3.710938 -0.0507812 3.046875 -0.4375 C 2.378906 -0.832031 1.851562 -1.382812 1.46875 -2.09375 C 1.09375 -2.8125 0.90625 -3.644531 0.90625 -4.59375 Z M 9.21875 -4.59375 C 9.21875 -5.382812 9.050781 -6.085938 8.71875 -6.703125 C 8.382812 -7.316406 7.929688 -7.789062 7.359375 -8.125 C 6.785156 -8.457031 6.144531 -8.625 5.4375 -8.625 C 4.6875 -8.625 4.03125 -8.460938 3.46875 -8.140625 C 2.90625 -7.816406 2.46875 -7.351562 2.15625 -6.75 C 1.84375 -6.144531 1.6875 -5.425781 1.6875 -4.59375 C 1.6875 -3.757812 1.84375 -3.035156 2.15625 -2.421875 C 2.46875 -1.816406 2.910156 -1.351562 3.484375 -1.03125 C 4.054688 -0.707031 4.707031 -0.546875 5.4375 -0.546875 C 6.144531 -0.546875 6.785156 -0.707031 7.359375 -1.03125 C 7.941406 -1.363281 8.394531 -1.835938 8.71875 -2.453125 C 9.050781 -3.066406 9.21875 -3.78125 9.21875 -4.59375 Z M 3.796875 -10.203125 C 3.847656 -10.628906 3.984375 -10.960938 4.203125 -11.203125 C 4.421875 -11.441406 4.695312 -11.5625 5.03125 -11.5625 C 5.226562 -11.5625 5.398438 -11.523438 5.546875 -11.453125 C 5.691406 -11.378906 5.851562 -11.269531 6.03125 -11.125 C 6.195312 -10.988281 6.335938 -10.890625 6.453125 -10.828125 C 6.578125 -10.765625 6.722656 -10.734375 6.890625 -10.734375 C 7.085938 -10.734375 7.253906 -10.800781 7.390625 -10.9375 C 7.523438 -11.070312 7.609375 -11.265625 7.640625 -11.515625 L 8.140625 -11.515625 C 8.109375 -11.109375 7.972656 -10.78125 7.734375 -10.53125 C 7.503906 -10.289062 7.21875 -10.171875 6.875 -10.171875 C 6.664062 -10.171875 6.484375 -10.207031 6.328125 -10.28125 C 6.179688 -10.363281 6.007812 -10.476562 5.8125 -10.625 C 5.65625 -10.75 5.519531 -10.84375 5.40625 -10.90625 C 5.289062 -10.96875 5.160156 -11 5.015625 -11 C 4.597656 -11 4.359375 -10.734375 4.296875 -10.203125 Z M 3.796875 -10.203125 "/></g></g></g><g fill="#ffffff" fill-opacity="1"><g transform="translate(205.513745, 224.048485)"><g><path d="M 5.421875 0.140625 C 4.566406 0.140625 3.796875 -0.0507812 3.109375 -0.4375 C 2.421875 -0.820312 1.878906 -1.367188 1.484375 -2.078125 C 1.097656 -2.796875 0.90625 -3.632812 0.90625 -4.59375 C 0.90625 -5.53125 1.101562 -6.359375 1.5 -7.078125 C 1.894531 -7.796875 2.4375 -8.34375 3.125 -8.71875 C 3.820312 -9.09375 4.597656 -9.28125 5.453125 -9.28125 C 6.304688 -9.28125 7.078125 -9.09375 7.765625 -8.71875 C 8.453125 -8.34375 8.988281 -7.800781 9.375 -7.09375 C 9.757812 -6.382812 9.953125 -5.550781 9.953125 -4.59375 C 9.953125 -3.632812 9.753906 -2.796875 9.359375 -2.078125 C 8.972656 -1.367188 8.429688 -0.820312 7.734375 -0.4375 C 7.046875 -0.0507812 6.273438 0.140625 5.421875 0.140625 Z M 5.421875 -0.546875 C 6.078125 -0.546875 6.695312 -0.691406 7.28125 -0.984375 C 7.863281 -1.285156 8.328125 -1.738281 8.671875 -2.34375 C 9.023438 -2.945312 9.203125 -3.695312 9.203125 -4.59375 C 9.203125 -5.46875 9.023438 -6.207031 8.671875 -6.8125 C 8.328125 -7.425781 7.863281 -7.878906 7.28125 -8.171875 C 6.707031 -8.472656 6.09375 -8.625 5.4375 -8.625 C 4.769531 -8.625 4.148438 -8.472656 3.578125 -8.171875 C 3.015625 -7.878906 2.554688 -7.425781 2.203125 -6.8125 C 1.859375 -6.207031 1.6875 -5.46875 1.6875 -4.59375 C 1.6875 -3.695312 1.859375 -2.945312 2.203125 -2.34375 C 2.546875 -1.738281 3 -1.285156 3.5625 -0.984375 C 4.132812 -0.691406 4.753906 -0.546875 5.421875 -0.546875 Z M 5.421875 -0.546875 "/></g></g></g><g fill="#ffffff" fill-opacity="1"><g transform="translate(215.75847, 224.048485)"><g/></g></g><g fill="#ffffff" fill-opacity="1"><g transform="translate(219.876513, 224.048485)"><g><path d="M 1.078125 -8.859375 C 1.179688 -9.878906 1.578125 -10.679688 2.265625 -11.265625 C 2.960938 -11.859375 3.878906 -12.15625 5.015625 -12.15625 C 5.742188 -12.15625 6.363281 -12.019531 6.875 -11.75 C 7.394531 -11.488281 7.789062 -11.128906 8.0625 -10.671875 C 8.332031 -10.222656 8.46875 -9.710938 8.46875 -9.140625 C 8.46875 -8.421875 8.25 -7.800781 7.8125 -7.28125 C 7.375 -6.757812 6.707031 -6.445312 5.8125 -6.34375 L 5.8125 -6.25 C 6.675781 -6.113281 7.367188 -5.78125 7.890625 -5.25 C 8.421875 -4.71875 8.6875 -4.007812 8.6875 -3.125 C 8.6875 -2.175781 8.375 -1.398438 7.75 -0.796875 C 7.125 -0.203125 6.210938 0.09375 5.015625 0.09375 C 3.878906 0.09375 2.941406 -0.207031 2.203125 -0.8125 C 1.460938 -1.414062 1.019531 -2.273438 0.875 -3.390625 L 1.625 -3.390625 C 1.757812 -2.554688 2.117188 -1.878906 2.703125 -1.359375 C 3.285156 -0.835938 4.054688 -0.578125 5.015625 -0.578125 C 5.984375 -0.578125 6.71875 -0.816406 7.21875 -1.296875 C 7.71875 -1.785156 7.96875 -2.410156 7.96875 -3.171875 C 7.96875 -4.097656 7.613281 -4.789062 6.90625 -5.25 C 6.207031 -5.707031 5.203125 -5.9375 3.890625 -5.9375 L 3.578125 -5.9375 L 3.578125 -6.59375 L 3.921875 -6.59375 C 6.460938 -6.601562 7.734375 -7.4375 7.734375 -9.09375 C 7.734375 -9.8125 7.492188 -10.390625 7.015625 -10.828125 C 6.535156 -11.265625 5.863281 -11.484375 5 -11.484375 C 4.15625 -11.484375 3.441406 -11.257812 2.859375 -10.8125 C 2.273438 -10.375 1.929688 -9.722656 1.828125 -8.859375 Z M 1.078125 -8.859375 "/></g></g></g><g fill="#ffffff" fill-opacity="1"><g transform="translate(229.024174, 224.048485)"><g><path d="M 4.703125 -11.84375 C 6.710938 -11.84375 8.257812 -11.316406 9.34375 -10.265625 C 10.425781 -9.222656 10.96875 -7.769531 10.96875 -5.90625 C 10.96875 -4.039062 10.425781 -2.585938 9.34375 -1.546875 C 8.257812 -0.515625 6.710938 0 4.703125 0 L 1.390625 0 L 1.390625 -11.84375 Z M 4.703125 -0.640625 C 6.492188 -0.640625 7.851562 -1.101562 8.78125 -2.03125 C 9.71875 -2.957031 10.1875 -4.25 10.1875 -5.90625 C 10.1875 -7.570312 9.71875 -8.867188 8.78125 -9.796875 C 7.851562 -10.734375 6.492188 -11.203125 4.703125 -11.203125 L 2.140625 -11.203125 L 2.140625 -0.640625 Z M 4.703125 -0.640625 "/></g></g></g><g clip-path="url(#fd46c91c13)"><g clip-path="url(#bc6d3dda6c)"><g clip-path="url(#5470afae9b)"><path fill="#ffffff" d="M 208.792969 145.800781 L 232.691406 119.589844 L 227.484375 103.21875 L 203.589844 129.429688 Z M 208.792969 145.800781 " fill-opacity="1" fill-rule="nonzero"/></g></g></g><g clip-path="url(#9e5243b079)"><g clip-path="url(#0c222bbf87)"><g clip-path="url(#3275251eb1)"><path fill="#ffffff" d="M 205.082031 107.546875 L 185.277344 103.207031 L 190.480469 119.578125 L 193.511719 120.238281 Z M 205.082031 107.546875 " fill-opacity="1" fill-rule="nonzero"/></g></g></g><g clip-path="url(#fca2a0d1ec)"><g clip-path="url(#165855453e)"><g clip-path="url(#deae50e414)"><path fill="#ffffff" d="M 226.773438 102.570312 L 192.125 94.976562 L 185.484375 102.265625 L 206.101562 106.78125 L 206.105469 106.78125 C 206.125 106.789062 206.140625 106.792969 206.160156 106.796875 C 206.164062 106.800781 206.167969 106.800781 206.175781 106.804688 C 206.1875 106.808594 206.199219 106.8125 206.214844 106.820312 C 206.21875 106.824219 206.222656 106.824219 206.230469 106.828125 C 206.242188 106.835938 206.257812 106.84375 206.269531 106.851562 C 206.273438 106.855469 206.277344 106.855469 206.277344 106.859375 C 206.292969 106.871094 206.308594 106.882812 206.324219 106.894531 C 206.324219 106.898438 206.328125 106.898438 206.328125 106.898438 C 206.332031 106.902344 206.335938 106.90625 206.339844 106.910156 C 206.34375 106.914062 206.351562 106.921875 206.359375 106.929688 C 206.363281 106.933594 206.367188 106.941406 206.375 106.945312 C 206.378906 106.953125 206.382812 106.957031 206.386719 106.964844 C 206.394531 106.972656 206.398438 106.976562 206.402344 106.988281 C 206.40625 106.992188 206.410156 106.996094 206.414062 107 C 206.417969 107.007812 206.421875 107.019531 206.429688 107.027344 C 206.429688 107.03125 206.433594 107.039062 206.4375 107.042969 C 206.441406 107.050781 206.445312 107.058594 206.449219 107.066406 C 206.449219 107.074219 206.453125 107.082031 206.457031 107.085938 C 206.457031 107.09375 206.460938 107.101562 206.460938 107.109375 C 206.464844 107.117188 206.46875 107.125 206.46875 107.132812 C 206.472656 107.140625 206.472656 107.144531 206.476562 107.152344 C 206.476562 107.160156 206.480469 107.171875 206.480469 107.179688 C 206.480469 107.1875 206.480469 107.191406 206.480469 107.199219 C 206.484375 107.207031 206.484375 107.21875 206.484375 107.226562 C 206.484375 107.234375 206.484375 107.238281 206.484375 107.246094 C 206.484375 107.253906 206.484375 107.261719 206.484375 107.273438 C 206.484375 107.28125 206.484375 107.285156 206.484375 107.292969 C 206.484375 107.300781 206.484375 107.308594 206.480469 107.320312 C 206.480469 107.328125 206.480469 107.335938 206.476562 107.34375 C 206.476562 107.347656 206.476562 107.355469 206.476562 107.359375 C 206.472656 107.363281 206.472656 107.363281 206.472656 107.367188 C 206.472656 107.375 206.46875 107.386719 206.464844 107.394531 C 206.464844 107.402344 206.460938 107.40625 206.460938 107.410156 C 206.457031 107.421875 206.453125 107.429688 206.449219 107.441406 C 206.449219 107.445312 206.445312 107.453125 206.441406 107.457031 C 206.4375 107.464844 206.433594 107.472656 206.429688 107.484375 C 206.425781 107.488281 206.425781 107.492188 206.421875 107.5 C 206.417969 107.507812 206.414062 107.515625 206.40625 107.523438 C 206.402344 107.527344 206.398438 107.535156 206.394531 107.539062 C 206.390625 107.546875 206.382812 107.554688 206.378906 107.558594 C 206.375 107.566406 206.371094 107.570312 206.363281 107.578125 C 206.363281 107.578125 206.363281 107.582031 206.359375 107.582031 L 194.035156 121.101562 L 189.667969 125.886719 L 202.875 128.78125 Z M 226.773438 102.570312 " fill-opacity="1" fill-rule="nonzero"/></g></g></g><g clip-path="url(#e424ace8e3)"><g clip-path="url(#1c6e449972)"><g clip-path="url(#d49d0e7020)"><path fill="#ffffff" d="M 207.875 146.089844 L 202.667969 129.722656 L 189.460938 126.828125 L 194.667969 143.199219 Z M 207.875 146.089844 " fill-opacity="1" fill-rule="nonzero"/></g></g></g></svg>